<?xml version="1.0" standalone="no"?>
<!DOCTYPE svg PUBLIC "-//W3C//DTD SVG 20010904//EN"
 "http://www.w3.org/TR/2001/REC-SVG-20010904/DTD/svg10.dtd">
<svg version="1.0" xmlns="http://www.w3.org/2000/svg"
 width="362.000000pt" height="362.000000pt" viewBox="0 0 362.000000 362.000000"
 preserveAspectRatio="xMidYMid meet">
<metadata>
Created by potrace 1.11, written by Peter Selinger 2001-2013
</metadata>
<g transform="translate(0.000000,362.000000) scale(0.100000,-0.100000)"
fill="#000000" stroke="none">
<path d="M1757 3584 c-1 -1 -45 -4 -97 -8 -99 -6 -122 -9 -205 -27 -27 -6 -59
-12 -70 -15 -52 -10 -189 -55 -268 -88 -520 -215 -913 -672 -1046 -1219 -39
-157 -52 -271 -52 -432 1 -613 321 -1188 841 -1509 81 -51 134 -78 275 -141
70 -32 272 -89 355 -100 25 -3 52 -8 60 -10 63 -16 304 -22 420 -10 368 38
670 165 984 415 51 41 206 203 249 260 26 36 54 72 62 81 25 32 117 193 151
266 114 248 168 500 166 778 -1 65 -4 131 -6 145 -3 14 -8 50 -11 80 -13 118
-62 295 -120 435 -183 444 -544 797 -995 975 -93 37 -249 81 -330 94 -19 3
-44 8 -56 10 -41 8 -300 26 -307 20z m230 -78 c21 -3 58 -8 83 -12 245 -32
531 -153 757 -320 470 -347 738 -946 682 -1526 -26 -271 -114 -533 -257 -763
-119 -191 -323 -397 -526 -530 -110 -71 -352 -182 -436 -200 -8 -2 -43 -10
-77 -19 -262 -68 -552 -68 -826 0 -234 58 -439 157 -637 307 -68 52 -244 225
-295 291 -440 564 -491 1327 -131 1940 190 323 491 580 841 719 93 37 244 82
305 91 19 3 46 8 60 11 14 3 59 8 100 11 41 4 76 7 78 9 5 4 242 -3 279 -9z"/>
<path d="M1309 2916 c-2 -2 -26 -6 -54 -9 -138 -14 -308 -78 -427 -158 -230
-157 -388 -374 -455 -627 -23 -86 -26 -117 -26 -272 -1 -152 2 -186 22 -260
13 -47 24 -89 25 -95 4 -12 13 -35 43 -104 59 -137 211 -319 345 -414 126 -90
207 -128 346 -166 253 -69 571 -35 782 84 l54 30 71 -46 c209 -140 487 -139
692 2 103 71 201 196 237 302 33 99 42 246 21 356 -42 218 -254 427 -545 536
-86 32 -144 63 -215 116 -117 86 -158 156 -162 273 -3 85 4 106 50 149 16 15
24 27 18 27 -39 0 35 83 105 118 151 76 347 13 423 -136 l21 -42 50 20 c28 11
53 20 55 20 14 0 1 42 -26 86 -40 65 -110 128 -184 164 -73 37 -90 41 -182 45
-128 7 -242 -38 -335 -129 l-47 -47 -49 31 c-71 44 -168 85 -242 105 -120 31
-135 34 -150 35 -133 6 -258 9 -261 6z m261 -142 c136 -26 288 -86 359 -142
22 -17 23 -22 12 -55 -15 -45 -12 -167 6 -226 46 -159 182 -286 398 -371 139
-55 208 -92 292 -157 104 -80 147 -130 192 -223 32 -68 36 -85 39 -176 3 -72
0 -117 -11 -155 -66 -225 -286 -384 -507 -365 -36 2 -72 7 -80 9 -70 18 -102
31 -145 58 l-49 31 31 28 31 28 -26 24 c-73 64 -68 62 -101 39 l-30 -22 -31
48 c-26 41 -58 125 -64 169 -1 7 -5 16 -9 20 -9 9 -107 -28 -108 -40 -5 -46
25 -136 68 -208 19 -32 32 -62 29 -67 -16 -25 -220 -95 -316 -108 -119 -16
-334 -2 -405 27 -11 4 -42 16 -70 26 -264 94 -502 360 -574 640 -17 66 -35
201 -32 239 0 6 3 44 5 85 9 143 68 311 155 438 107 159 306 316 456 361 22 7
47 15 55 19 89 37 304 50 430 26z"/>
</g>
</svg>
